<mxfile host="app.diagrams.net" modified="2024-05-05T10:13:45.702Z" agent="Mozilla/5.0 (Windows NT 10.0; Win64; x64) AppleWebKit/537.36 (KHTML, like Gecko) Chrome/124.0.0.0 Safari/537.36" etag="JeXEP_wc3D5TUuSUusjd" version="24.3.1" type="google">
  <diagram name="PÃ¡gina-1" id="WmQxIEgVPcP-sukbjLlC">
    <mxGraphModel grid="1" page="1" gridSize="10" guides="1" tooltips="1" connect="1" arrows="1" fold="1" pageScale="1" pageWidth="827" pageHeight="1169" math="0" shadow="0">
      <root>
        <mxCell id="0" />
        <mxCell id="1" parent="0" />
        <mxCell id="u8VC7L9x500EiHMMpAyd-5" value="" style="rounded=0;whiteSpace=wrap;html=1;fillColor=#d5e8d4;strokeColor=#82b366;" vertex="1" parent="1">
          <mxGeometry x="364" y="810" width="340" height="250" as="geometry" />
        </mxCell>
        <mxCell id="u8VC7L9x500EiHMMpAyd-3" value="" style="rounded=0;whiteSpace=wrap;html=1;fillColor=#dae8fc;strokeColor=#6c8ebf;" vertex="1" parent="1">
          <mxGeometry x="-70" y="810" width="340" height="250" as="geometry" />
        </mxCell>
        <mxCell id="2NQhCOe1wRh0t_-MxqOp-1" value="&lt;b&gt;FPGA&lt;/b&gt;" style="rounded=0;whiteSpace=wrap;html=1;" vertex="1" parent="1">
          <mxGeometry x="64" y="890" width="82" height="30" as="geometry" />
        </mxCell>
        <mxCell id="2NQhCOe1wRh0t_-MxqOp-2" value="&lt;b&gt;Arduino mega&lt;/b&gt;" style="rounded=0;whiteSpace=wrap;html=1;" vertex="1" parent="1">
          <mxGeometry x="450" y="883" width="82" height="30" as="geometry" />
        </mxCell>
        <mxCell id="2NQhCOe1wRh0t_-MxqOp-3" value="&lt;b&gt;5v analog joystick&lt;/b&gt;" style="rounded=0;whiteSpace=wrap;html=1;" vertex="1" parent="1">
          <mxGeometry x="590.5" y="974" width="82" height="30" as="geometry" />
        </mxCell>
        <mxCell id="2NQhCOe1wRh0t_-MxqOp-4" value="&lt;b&gt;Serial 1&lt;/b&gt;" style="rounded=0;whiteSpace=wrap;html=1;" vertex="1" parent="1">
          <mxGeometry x="400" y="933" width="82" height="30" as="geometry" />
        </mxCell>
        <mxCell id="2NQhCOe1wRh0t_-MxqOp-5" value="&lt;b&gt;Analog input&lt;/b&gt;" style="rounded=0;whiteSpace=wrap;html=1;" vertex="1" parent="1">
          <mxGeometry x="590.5" y="933" width="82" height="30" as="geometry" />
        </mxCell>
        <mxCell id="2NQhCOe1wRh0t_-MxqOp-6" value="&lt;b&gt;Pin RX&lt;/b&gt;" style="rounded=0;whiteSpace=wrap;html=1;" vertex="1" parent="1">
          <mxGeometry x="400" y="974" width="82" height="30" as="geometry" />
        </mxCell>
        <mxCell id="2NQhCOe1wRh0t_-MxqOp-8" value="&lt;b&gt;Pin TX&lt;/b&gt;" style="rounded=0;whiteSpace=wrap;html=1;" vertex="1" parent="1">
          <mxGeometry x="64" y="974" width="82" height="30" as="geometry" />
        </mxCell>
        <mxCell id="2NQhCOe1wRh0t_-MxqOp-9" value="" style="endArrow=classic;html=1;rounded=0;exitX=1;exitY=0.5;exitDx=0;exitDy=0;entryX=0;entryY=0.5;entryDx=0;entryDy=0;" edge="1" parent="1" source="2NQhCOe1wRh0t_-MxqOp-8" target="2NQhCOe1wRh0t_-MxqOp-6">
          <mxGeometry width="50" height="50" relative="1" as="geometry">
            <mxPoint x="180" y="994" as="sourcePoint" />
            <mxPoint x="230" y="944" as="targetPoint" />
          </mxGeometry>
        </mxCell>
        <mxCell id="2NQhCOe1wRh0t_-MxqOp-10" value="Com timer" style="text;html=1;align=center;verticalAlign=middle;whiteSpace=wrap;rounded=0;" vertex="1" parent="1">
          <mxGeometry x="270" y="963" width="96" height="30" as="geometry" />
        </mxCell>
        <mxCell id="2NQhCOe1wRh0t_-MxqOp-11" value="&lt;b&gt;Pin RX&lt;/b&gt;" style="rounded=0;whiteSpace=wrap;html=1;" vertex="1" parent="1">
          <mxGeometry x="156" y="1014" width="82" height="30" as="geometry" />
        </mxCell>
        <mxCell id="2NQhCOe1wRh0t_-MxqOp-12" value="" style="endArrow=classic;html=1;rounded=0;exitX=0;exitY=0.5;exitDx=0;exitDy=0;entryX=1;entryY=0.5;entryDx=0;entryDy=0;" edge="1" parent="1" source="e-5RWkFIlbiwNAgsXUWy-2" target="2NQhCOe1wRh0t_-MxqOp-11">
          <mxGeometry width="50" height="50" relative="1" as="geometry">
            <mxPoint x="400" y="1029" as="sourcePoint" />
            <mxPoint x="230" y="944" as="targetPoint" />
          </mxGeometry>
        </mxCell>
        <mxCell id="2NQhCOe1wRh0t_-MxqOp-13" value="Led pwm" style="text;html=1;align=center;verticalAlign=middle;whiteSpace=wrap;rounded=0;" vertex="1" parent="1">
          <mxGeometry x="270" y="1004" width="96" height="30" as="geometry" />
        </mxCell>
        <mxCell id="2NQhCOe1wRh0t_-MxqOp-15" value="&lt;b&gt;RG_control&lt;/b&gt;" style="rounded=0;whiteSpace=wrap;html=1;" vertex="1" parent="1">
          <mxGeometry x="-28" y="933" width="82" height="30" as="geometry" />
        </mxCell>
        <mxCell id="2NQhCOe1wRh0t_-MxqOp-16" value="&lt;b&gt;SMD RGB LED&lt;/b&gt;" style="rounded=0;whiteSpace=wrap;html=1;" vertex="1" parent="1">
          <mxGeometry x="-28" y="974" width="82" height="30" as="geometry" />
        </mxCell>
        <mxCell id="e-5RWkFIlbiwNAgsXUWy-1" value="&lt;b&gt;Serial 2&lt;/b&gt;" style="rounded=0;whiteSpace=wrap;html=1;" vertex="1" parent="1">
          <mxGeometry x="495" y="933" width="82" height="30" as="geometry" />
        </mxCell>
        <mxCell id="e-5RWkFIlbiwNAgsXUWy-2" value="&lt;b&gt;Pin TX&lt;/b&gt;" style="rounded=0;whiteSpace=wrap;html=1;" vertex="1" parent="1">
          <mxGeometry x="493" y="1014" width="82" height="30" as="geometry" />
        </mxCell>
        <mxCell id="u8VC7L9x500EiHMMpAyd-1" value="&lt;b&gt;Uart_tx&lt;/b&gt;" style="rounded=0;whiteSpace=wrap;html=1;" vertex="1" parent="1">
          <mxGeometry x="64" y="933" width="82" height="30" as="geometry" />
        </mxCell>
        <mxCell id="u8VC7L9x500EiHMMpAyd-2" value="&lt;b&gt;Uart_rx&lt;/b&gt;" style="rounded=0;whiteSpace=wrap;html=1;" vertex="1" parent="1">
          <mxGeometry x="157" y="933" width="82" height="30" as="geometry" />
        </mxCell>
        <mxCell id="u8VC7L9x500EiHMMpAyd-4" value="Siepeed Tang Premier 20k" style="text;html=1;align=center;verticalAlign=middle;whiteSpace=wrap;rounded=0;fontSize=21;" vertex="1" parent="1">
          <mxGeometry x="27.5" y="830" width="145" height="30" as="geometry" />
        </mxCell>
        <mxCell id="u8VC7L9x500EiHMMpAyd-6" value="Arduino mega" style="text;html=1;align=center;verticalAlign=middle;whiteSpace=wrap;rounded=0;fontSize=21;" vertex="1" parent="1">
          <mxGeometry x="461.5" y="830" width="145" height="30" as="geometry" />
        </mxCell>
        <mxCell id="u8VC7L9x500EiHMMpAyd-9" value="" style="shape=image;verticalLabelPosition=bottom;labelBackgroundColor=default;verticalAlign=top;aspect=fixed;imageAspect=0;image=https://cdn.icon-icons.com/icons2/2699/PNG/512/arduino_logo_icon_170518.png;" vertex="1" parent="1">
          <mxGeometry x="636" y="813.5" width="63" height="63" as="geometry" />
        </mxCell>
        <mxCell id="u8VC7L9x500EiHMMpAyd-11" value="" style="shape=image;verticalLabelPosition=bottom;labelBackgroundColor=default;verticalAlign=top;aspect=fixed;imageAspect=0;image=data:image/webp,UklGRvwuAABXRUJQVlA4WAoAAAAQAAAA/wAA/wAAQUxQSD8XAAABHAVt2zA1f97dQRARSZ6JLo/8/+GJvh7zmJmZZDKTJJMkSZIkSU6SnJwkSXKSkyQnJ4mT5CQ5yUlOTpIkSU7OyeTkZJIkSZJkJpnMzMw8vn+07+/3+z7Ps+fviJgAu61t19XurPt2ZDByTLgAgyXsCgyFDlmCQqe7AEMlsAKDJTB2JLgCwhXQj/hiBdqb1NF3/offETEB+G+UvqGwLfmHwo5pKL2g2VFfZl13SOWX+NhoQ6FTfG11SIuIuOuzn1lE3PE6ouZnRMwM2U5jDBFzH52QZwffXodtxrOLb68qHNBgNg9+s5m+bB5ccjme0ivMH2u1leAp5n9tczwzSB967GQK6UiRw6l6EEgP2kh9TADHnY17D0Wvym3DvYmit2FH8z4jhEuaXQxmhXDJyRSfovhrq02UnKP4yzsHM4Oyhz57mEbZv17HUh+XwkFbqLmVMkadiusnyl+GbED7hfIPlQ6lJ6kA52ygL60A11yOJBhFla9Nlgueo8pEiyNZRLV7bqtNodoDrwNpelGUHbZY3ZOi3Kjz8G6j6suQpfRtVH0fdhz9GWW4aKnetDL87jRKT1F9otFCoTNUH2t2GDMGA+64rTNtMOC+z1E0PCJnesAytffImRt1Et5t5P1fZhHPL+S9CDuIvjQTzmjW6E0y4XcH0c82Z5H+FNeig3D/YrqoAmu6N5iuwg4Cmp5YMkNg1foHltwYOEltnmXPbRmYNjj2/Y4Cys8ZUi1g3ZL/DC/t4DCH0uqWwcp9GXVLmtPwHyq7KbOUvq3srgIcZ3NMUW4ErF0XV2R8AqcYqNMImFX020NVFZvIV01pM4qOfFQ4VOBmzoJU6bmSlyYgA4fzLvNMXYUJCEaVJNqB9Pz54SpoNS84S8GHtIoloCfwtdU0jTH8TkFvVsU60KOY6ixkrh3EpzrKva3gvpyquUE89JvEvYsYa6L0HQXxSip0jnjsL2AfDETc8RBQ9yKVHQXS9RMRjU8mGcgi4p6fgOpHuQkg9e+IiBOFq/gMETHVS8Gi1JGHepdARLwoNUXgChExO0DBrNRfL9X1+iZeXbBmMe//EBW8kkh3AFl0iHmXTDGNeaNBKhiVSL8D0neIeVe0AtUQz2dMUtCXFlvXqXEj32uLCWoe8hlzLgL6smJrGjWczpfsKEzaJpJ3dZRrW+gmDGT1HZKHPjb3JpIvLZS+LXRfBWT4CsmIvyANpin8qRPQ+CxgjAG9jIJjbD0ZCnd9BNS/iHwC0rWCgmOFKHSGgskPFMwJ/C2mOhMitxVMxREUzAxS2rRB/S2mOtMijxWFx7WAwtEyqvSKSHQAWXKKwitMX7MieF5BQEmESHUBWXSEwmtawWl+FsOvFAzk8i0APYHiqVaWukcU/0pBTzLfmosaNcSS3YXGvY2Sj42UZyvPZTlV+SiBRx4GfRslH+op91ae22ogKy5Q8l+gwPQnZXDTTUDjCyJmPwHp+oGymVGGnpQM7ngJqH9AxOwIkK5FlDXGC0tpFKXTfZQ2ZyD+9lHdaSm8CSsLnqK0MULBZ0Q8KqLaX6XwpqqgzKDCsxABwQuMtwPpj6DCRU3VPCq8LqWCJ5jsBNJzgArXC0nTowqcp2Ag991FfUKVzx2K6h5V4DwF3Zmfbmo0oyLRVTjc26g0Vk8Vf6kDsvxJCR75lLjXUelzM+WfrAey8g6VHgcKRl9aDf5yE6Bp1HdUm/2k5ENKDR54CNCA1FZRrfHVVSDKoqg49Z4SbEsowptqBYFjVN1HCbZkFGGsoUDMoPKzgJT3GJUvKBjPKrsISOl7qHxFLwgNMXU4KTWcU/fUIlV1g+oXpAay6l67C4FnFxmfqiVCl8j42y/h/oGM8XqJ8mtk/F1UAHrTHPhLE/uOnLlRie4kB+65xb4iZ27M/kpOkDXVKdSaYMHzcqGSCLJm3gvVP7HgbZXduWaR+SQoULSHzIseAe2LwYOnZQK+fWT+4bG5oigXdgk0xbnuwgLeP8iceS9Ql+C6qbQ5bdJgipQI+LaZjC8uARjLMZ0UC2jrXEsumwP/Ec9zC4jW3fJEikHUu8uTbAfR8D3PeRhsvz3BsgDikzmOZC+IN8VYVkF8giXTDwVwheOhXKLomGNDl4B5jodKiZIox463EIRvGT6BbGdK3UMDyJaeMUyBbFdG3VMDFMThjLLfPin3L3VfNSkYSCmLeKW0DWXGNBRG329VyTaQr3tRdVEB8p5tVal2kK96UnUWKhDQFlP0Q1MAc4oyA6CyKaZoBVROKUp9AFvXdAHtm5rrMJCuCj8ViKrZ8lB6sYBr1lDyUEnptT6q+ETNplegSLehym8lFFRdqTBGga6L9lPwPqnivhro9oMSCkLnKozPQDdcj1HQnVRx3wi0f7fLhuZxTADGVBz5KfcvPA1S2qaKaaDduzgrACMZBSdFlOsHXpRRrl8qZkFwAn/7bKcujg9hgaI/col3QPdmEOc0AhricqelAv1ZjNUIeLblUl1Af0gifqWg9lHuPCRQ84jZEbvx7CDipkZB+4vUDzdV+h8R480UzEmle4AOXiDihk5Bc1xqVadKThHxpZWCz4ZMqh9o9yYi3oZtpj+LiOl3ArAsc10F9DS+3fVTJacy27rAPCJipkdAm5e5qwJ6Et/+9lGBY5ktXaArg4i44bKV0D98G/ELhG/Ecp+Arr7Pk+2noCcn9lADdHP8DUZ8FJTeSIwD3fCYJ91HQVdC7LkVaP8Jvn3ttpUZIw9OCMBkVuhvCeXexPynIcq7IfYFaPcO5p8RgLGs0EmQcm1g/vMyyr0htgKCk5j/JGAjjU+Y/6FSwL8nEm8Hui9HGAsuAuruRKIBgcE0EasXcO+JJLuB7k0SuOQioP5W5LxUoPaRMGY029A3kV4TgLZXgUWgSy+RjjdS8MWg0v1AB8+R3vJQUBcTWNWpkijSmXYKJgSMIaDdW0g/NtpGb1Ig1SUAP6jbSoE5FN10UyWn1J5LYB4FU30CME/d1QI9g6LHfir4j9r3CnxIC+Cu1yZCZyj6xydQcZfPGAe6NiaUeU/Bh3S+WD3QLTERPCsVCN3ky30Guv5RKPeRgg/JfC/1QBdHUDQ9YA/aLArnpgRgKJfnt49y/ULx81LKvZ5vCuiiAxQ25gVgJJfnoIjy7KL4ZRmlr+RbAMEpQwjPy2yh8UkMH6sEPPtvEh1A92Yl8BsFNXdvoiUCIzkxfG4VcP1+k2gH+n1OApcoqLx5cxMUaHhEyWWXDei/UPani4KGBCL+0KiiM5SNN1IwhYjGENDhG5Q98FLQmkLEVZ3yHaPscx0F04hoDACtb6PsS7sNvE9KJbsFYBHxugLoz4YU7uhU4B/irk9gwZDKDAm4lhGvw0BP5qRw30UFTxD3vAK9KSnc81ou8A/lj4sFQtf4EejKG5TPfqCgN/vaAHRjDOUvyikov8ZxoKseUN4YoKAjE28AOnCC8tlRy31BhcakAAzv+in3L1R5EaL0tRmgffuockEAPh4WC2yhypsKyrU+DYKfUeVtpcUqn1TgXa2ALwR0d1IJfqcg5BMYRqWxFgFPKdBdSSU4T0GJX6D6Tgn+0Cyl/0S1ay5KNHiGahMNlGjllRrc81GivmNUG2umRPUVVJvqsNS7tKKXdhVTqHrXo2AZFecGVYyh6iNdQUdSER4XWcgfQdV/iuTq75Sle+Sa46rwskyu+kFZdliuOILKJ6yjTaFy45OUexPVRwMynn1Uv6TJ6Ouo/iwoNZlTd19lmY64OryvlelJMeBXmaEcQ7JN5n2KITevS1TfIeNWwCo/kXNdFwtEkPO+XqzkGjl/+8VKjpHzpU1MX0dOY9IqnzIcrz1i0wYLbulCy8g7LDaZY8Fdr1BXhmfKKt41DjwpFml8QN5kv0hLkumuXKT2FnlTIyKBU2TdL7EKVNxz4KTIOHKvaJTvN3KviowZTLilCcwga7wBrDvOEqsUqLpkSn8AegjZE80C4SjTSw/Q1U88c2DhwCkHrmkUjGR51txUyTUfHropGMzwrOqUtoGsF6VWgu4UR6ZbwLvHchsGegFNmPso4NtiuakBujPJkh0ES2u/OPBfMQVtCQbjM9AtL2bAhzIKmuMMxgTQvjNk3XVbC+riHDghoC0xnPgofQ/NuSoA3xhOAgKfkfW5ASyuzbA8lFNQcaks1QZ0b8okyTaB0KWyVDfQ4Ueer5rVIHTGgT8FYDSjalWnSqNo1qNiCgayqjZclP4TWU+DYP2BNEe2W8Czo+iuEuh5NK0xJuD5reiuCuiuFEtmCGzQu8uBp34KGl+U5MaAbngyD16VUdD+qmYcaP8fZN332wE0PnMYEwL6kpIjD+XZRRMbyxoFS0pOigU+5VjizWCLrkUOvA9TUHqpIPkO6L60mTDxTiB0rSDVCXTVLbLOafYAZVEOXNEoGMrKrWlU6AzN/beIgmFD7gcIriJrtBTsciDD8dol4P4rdVsB9Fc0+6SA91DqqUKg84UlOwi26T3gwONiClpeJYwpoJtiprutoaDlVeYz0P6/yHrgsQ9oiXEYkwKwLBHxU75tNP+6i4Ilib9egXGDJdYCdrrAgXfVAqWXQskOoAdzFnjtFqi4F0p2AF13j6zzYKtlFxy4oVMwaIis6FT5OVrxJEDBsCHyA2h9A1mjIXuBjxmOZLeAd1fgrhpI7Rtac8ZFefYE7qsEulMsmX6wWc8eBx4HKGh8JozPQDfHLfJUR0FjjBoHOhBB1h3dbqAlwYETArBARIopzy5adU2j4DsRCQhMGiyxOrBd7RvLfZ1A+DZPphfogaxlEu8Fwpd5Mj1A1z4i6zzYcOiaA3/qFHzMvNn0UGW3yHqV5sCTAAUfjTdrOuX5iazRYjuCcZZEh4DvLyLe1gC9jKzRilUW/CLgP0TE+2qgu9I8/WDLnhMOPC6moCOJuXGgG59ZcoMQjrE811DQEkf8ArT/D7Ie6PYEbSkOnNQo/Tse+Sl9B1l3PQCfcxy45aFcC/g/KDCBrPE6sOs1lqdqCir/9ADdl2V5bQQA/xlLto+Cij/9QFfd83wB265+5MB1FwVBDxW4RNZv8LYnzYH/Syit1ENpa8h6GbQvmGRJ9giIziLrRWke1yoLTlPC75IsRj/YuO+UAyPFCuriLOkhyB++Y4lXK/AcI+u+bmfQmeEwPst595B1z0PAiMGBO5rcGLI+1oGtu9Y4MF4pNWiwPLcCXfSHJTcgFX7kmQKbr37gwE2XRPAcWec0Aeh85cCLEgnXBrKehewOpnIc2fcSs8h6FgJR1xILzkp0ZljSA2D7gVMOPC0Wao6xpAdAvPyK5aVByB9B1k2P/cH7NAdOi7gPkHXHLQEjOQ48cImMImusAQqge50lXiPwMc3y1AyyRQcsmSGBijueaa0QQN0jB/6kyq6QdV6TgvYXDrwoJ7QNZP1XDIVxmiXdk09bRNZoGchr31lwnuhKsqT7oEAG/nHgqT9P6zNLdhBUhq9Y4k15Av+QdctTKGAgy5GdfOPdQ9Y9jxIYy3LgrvvNOLI+NkDB9O5z4H0lAAxmWeKNoNb7lyU7AADhK55ZrXBA0xMHrmpQeoasc6D63SsHRktBW0XW/yEopHMsL+9gzmA5DylzLbPgV+hMsKR7oaCWXXLgcd89cmaGQX3FLcvD8BGybumFBQYyHEbSYNl1M8BojgNTOZaHOiiwni0O5kQDcHr/sjB/hYLb/GyVBeBte7XKWajwwDfDGhdBJliySPo9FOCSS0tkeoG77MYav6AgfzSssK+zwUfDCrHqwuTZt0C8Afi9R1b4DAW6+cV8M2DGlqT5okWFCpZN9z9gClgyXa4XCnbZrcky/WDOijuz7boKF4yYbM9rEhjJmStWAwXcc2yqlxYwq/fIXF+goLenzLSomQbaXs10WlLYXGsmuq0A82orJsr1QYGvujdNdgTMXHFjnl290MGEafZ9poIRwyzxBij4xX9N8twG5vYfmGUaHGDnqzlWdJPBu2dz/A85AX3dFJeVYHZtwRTJXnCEDU8myI2A+csvzbDldgYwa4JDvwXgU47vqQEcYuCELdYIVvTvsRlfNKcA3Umub2DNpjhXJACO0b3JdFlhEW2BKf0BHGT9A0t2BKxadsGzqTsJmDE4DjyWgeE0x20tOMqyKMNzI1hXP+SYAofZn1b3DazcllB3FnIa3m1lt2WWgmVl6Q/gOBsfFWWHwdrl16o2NecBs4qOdYvBkKHmoRIcaDCqJNUCVvcdqfkCjnQoo2IRrN/yqiJa4kw8hwpuQjYAiwqyA+BQm1+ljEGww9CN3BY41kWpfa8twKghE692LsELiUQT2KP3SMKYAAc7JPEd7LItKXbqczLeI6HrUtuAZaFsDzja5qRAehDss/RSZMPlbGBZYN9jIzCUox6rwOGWPxDP7WCnvkNqEhzvJyPfN81WoPUlXyTgfPx/85yXgb1++wfjb7/FZ3BHAhGzH8Fuf/3nS/n+c0hbQ8QDn+0g/0z+5Tf4LK55xJc2sN9f/pE//x6fyZO44rIhyD/+9KvPpdByPdjxL/R3+C+WIhKfsGltrR17elySyfQZkmj3hTho6kQog37XYJDE10gkUkssRyIPiIi1Eo2L7dieF3fd3pc4lLnCpTw4PzbvbSsRwfytPCSHhmcdJNnTu4pemwpcKlw/PhTZ05Myzf6u4FFmdKnwTv1YHOlBzaK8vTIRxkrmreWDcaTPD0ZPuRB5bwTah+L5nGyN8P6KN1bazNmaU/CKWkV7AMLWPObHoBgZ74/BypzMABJ9jQCQO8kRXgKShwN7G06fiiJpKe6lbQaS6h7xgYOIPEStPiMAipfhFnLHVBmTrkAcbk4qg9cqM6mR5AjGYionOaog6iZpQvLRLnK0VvJM1M7rmSeiaN0uIgDazAiXzJXhKCZzxRyQGyaBOsU6OHl4O+0CoLG31gbTJRx0D+F1VCA1mhHSafbk5EG/hcvReVWkQlIWuF/6SqI9cKMufTVLcPolnJw+rYN+BArtCCCcnGwGCUTaudIfySicHvFC8yy8ppUOIHNFnOONoFkMAAoXy0U4WQB1AKDwTgDDmq+XzMUzAJvlYoUZaEvq5HeijgAblwVAdcomaUF4V7uDAOJYoQLxRR3C2+RNdeMUxNNqAGgrzGwNAMUrWrzxisLryAjFGgF4EfU0xicj0UwAQjcYJ8QSqwEY1kgA0rAaAHWGSh4zw9gBoBrMQL+rWq7ekd9JcRLUOHFVKwOnVdcS7YxrvqEHAHlCaIaLWAVod2mZOmVmc8o7OR2gGl1k1zYsBbJFXRInGOEGBYAwsVubZK3dahNjF5E0JVN5KjkjvI9I+wSasagAqsV8F+y7MKHW/MwOtztoEwNTGBZ1ZtMFv9mqc9wkAMJpURaSk4z0IXRCPHrbhC4Uh9nbSZnbnPqQTDet9dY04xpOqy3AqUZ92mjt2MNL0L24IB6PeNkayR6mqpX4DKXbAKilu0jCvFiMC9VijYiVrxOrqIhg8rYC7E4FdkcBoHnk2RrtY4pVgJCH01aaUzeR7ej0BcBm7bA39eDIgjjzrwhWhZ3KaxoQhiWAzsnMtEyt1ruWCwCEYbAIEHMjxdGbUJ+FZrBtAWErpN6SZnAYHUvQeyogd+3POMMFak12AGkvnfbASjifJdZsvEOmorHfgHLHSAD6TfERI8IM5wozUDhZlhDaRHkAylJ5Fcol3IGyNhIAbPconnAGuLGvVCAM7wxrQD6NKmLVl6CtjJn9nkSy4BbsY+FMMPNYGxkPGDtmQ5trAcDulIA7gCAiANTS1+CY62lGl+oFjUyX3dk9BB0TPcOPR59re8B6XTnLhtXcvDPDrJcmMNMwipHPHHANSlsAZCsb3RgWpHhdAwBUa3dWgwheKFpaa2VPWIyy63WXhA8bRFVVItxQqybcW0ieRbUO2h0PlF1Vt4Qvw85lfcIXZeDyiS/stFTDlxbi0Waq4Ms8ya6qWfB//38dBgBWUDgglhcAAPBiAJ0BKgABAAE+kT6aSKWjoqErdRwosBIJaG7gvABl6x9/vP6l2/2nvG/3X0pK1/Xv7b+xP7R7le7zyr/H+Xz5P+zfoj8yvmL/ef717I/1t7Af7FdJ//p+gL9f/2l93v/iftj7w/QD/mf+z///rjezf+6vsKftj6uv/h/eT4Xv7Z/3/3V9sf1AP//wBXmf+jfjN4Jf6r8fOxn9ld3fOZkUd3+h/sN/dvECdFusEx3IA8uO83oAeS9/m+Mr6y9hXys///7aP3N///uMfsajec2XU/d2E239Fl3iTNBa+i4ujdCFCCG9wTooZzmTy+ZQz3Q0aIXgqRjk6maavvMlIy4pVx+9OyqCc6ll7KiRYfHKxxC/ZeVVRUIr9H5btKu6EO1zrMcMxHa/Dzwv40v7aYyVn74ubBSp8cwfFc47aNe8flc3/KU5YL2z5TobVs4pMMlMomF20jlgK9xYxChkUmP4zgxVDMcE6p5k6CMtPr+EHMYJX8+SxtXh4RFndAqpm91rUo1FytO+mkmbZ+AxJOMogALddj18vJTneykLbcQY+XK2VwjnS3yyx9nJwVninxJ5urMowUGqC9v4VHs9HrcoylCrTlT/dM9A1yBStSJ7WPVJn+X96zC/LJwllBPuwMMQFyMqGOJi8PmTBNQdsBhlRMQE+AKB4+k9MSeDj8jd1QrtjkBUA6LcNiF5njd0VduAd+rj/5FEelptP63l4UQFPpuXNap9xgHuS4IKFawSqwAp8F8Dj37s+omZc9Zb0kKGWOjKZm8ITTp0eb3uG2Tg1m98/TxgBAdZW5gYrKpwHdR0WhNGyg/XNf7N0a7J+mIF5hR7CJao70hN40b4fUcA9+pmD9ypwsTJ2MdhKbIL/ssWDgXp9MYpTTZ0nT8pMRm/7RIq/a4gQIysb8phFGBgVfs6V25zGybdSps5O0tfbMRvltD1Ge7BbII5vRXsRf7MPa4BIO/svA25ZodcaErgaATy5xHCOLSkikbom5x7rz6L4BCvXaRiJuq4cENZrPwuP6/dkFRz/eefsmLLsH1tHhks89B7Y9v1VYJ777KAAP7dwAGFyHomr3CesMZLvMfJwrDpre++ROfH3TEMzkEJ4daisXJbZwtRoUY142r6c/TrDATWGla2gNbt9IMhh1y4paP5ppu/YT3z4GQWgsQ4PkP+VFoTs68U0pT+nIwIfei+60+3DQQUKW+9TQryrjcdPXha4peZI/87VM7uiA0vGkv/v/6G//zwYFhY+eaGWB82GOBMuUYL90EmIJ84NjR84iQeIFD1ChXAZMk9W5sCwmnszdSrZ8M424oWamomEiO5qvO9muScFh8+llbVDB1TjLo5nea1SLrcpaBxS4ORJ+6rgjXBqAewLvDmbGnazNMNSxCLc0MbDAHxlAG1zwHsTkOPwIUMSaSWeYBoF6TZQXmp7DHAFG4y3+0RV94Mhvg7ibYaAiZ4U3jkD+HEfkuNHfip9F+NIjEEnOT3DyQzkMwiQIW12dn4eBftQo5ZN9MpuDZp+HDKm2gELwEsUkfippBDQPFMwib6HF0xw0ObuwFnIn71GsNUVCF/Gbo/Q08asxug5Y3wvOQyV3EUHZd8ucvzN9f0TewVEqFVrCc6qf9fG1bBehLSamY+BZn8Oqw1buXti7LXrX7/4FHAwBQnQ1nI0ug1OQACUVVoGurl7I6GX7rFCmj7dAgAP2ziLNKssnDIZjAbO2xLTX6h1m2UOaR9cdCt6ukDID01Y/DOWN9gmOlKHUTl/1eW2h5aPehViXCy/mVWvNTG+FFxyoxzpLSEZXJULckQ7TWHElrKZLjW/mNxFZHjDGlvlND+WjEyIuRrh8gCsX5F1vccwwXlrzM4amcjD9HiFIg8ThVbPkvXqq+0pDHQLPbGE0VkP/uNIc/hEOtMt9l6P/13bvwlLkQqwFn7qiNcvLlH8ct1EsRXiMIABgk2vQ54aYAFM5EBC4ngxKQ3BE6y0F1lzM8oQYq+CGd0/mhpduGLi5p9FQsOKyZfOuXXyAGT7tigGWUzc4JP7A8lIzG7GFVpIPtqDRQqzFj5jNHRtKXg0AwXwmGYx+5ttczwqb0rmqA0cTTjI05jigeH17MoWgP0WC9FD9G6cdHzipCQAKcsUelT9yy+wO98O+NADCYsa5EfTRd8DQIq++Y09Ez+L4QbhWGZ5YFrPpi3hRgNaDQm6Vdn6aa0WKr5VDVOmAdqxyla+FvaTncqXLgHIaLTUPPkdH4UmPbEOITECix0I40epTQZTubYkORnDkLUVgA/pQj3yfyjF2Mmr3oKe2fVRS3yAiKUPMSqpXjTJsiNUtHpCShBX9x6KifcY6Oy2j2Uby3NzLJfu2Es+wFqrxFm+SQaRHaleN7A2hK/kVZTgT1LidCCG0tW0mNnZgAgxEt5sBp+ii2P71Tw4MAB/QdiDehx/9KG38DulosTSnAuTlf74lRpf0zezFh7JhcurylVEx662ZQDk/Eabr5GBQl+mFs0UjtOBVZlHU5nGYRIM2K+dTgDUBHf/Eu9oznQGJszTpdjCqh7IEZscv5seeBmU6NKDe5GXkLxwyw250DsvY3zzDf6XHsgaLLIBaGqTC0QsF/CzmPP70DV2k6P//R3nYcYwlHRxkF/cPfaNwNEwQyV0mQRvjZepMsq90BIwnGljbS/bZrGCrh9YfuQq5NGer9pwfg8JRfVx/9wiwx98Drt/hPMK1tk6ooHTjCmPVMjGsGijlQ2nQ4R/4pJ1MdoF8ieiBT8Ucw5/ZuUasseu8f7FVu2ox2/o/AmTjzZQXKm7X5kqCKRz8nRgQJKgY/+Fm/YFwXkTvKvdb8Mu1hKk746bUSAola3qA/vmjTvwlFslYnTXbikW5pJahKJk8fMU8FgSiRN4wiYZfjHN4TAFZM+h6sXYLCPXPndhvEFWwsb6ivN96rRpGDiQ44N6kkRJ6v6/O0v9n/cPtjI1L9VGNMxolbIykJeIoLkOm2wRQSmCXg5U68RSqyyUpYzJCS9lwfozfhrl+hQSeZauv2f1ISisXnqvSJIAA3AXUuFPZGtxOam+nvTApUE10mNVqm9z9HYmYrR/d5npvMHPuGDSZq8Oa6VyvRet8108YrB+qkztV/zOe+ypZ6qMBk3cbEMppDqxC7z0KV9xXB1WeaID2jF74UMCZjMtWoZvPLuskEsWrFysvY/Z1Y7vNZ9LVA6C8DirdLQJIUQhUjeqXurPG1o07bExm2g+l6ezCPt/HNQSs99YMNbKjmA0jp5ymIQA2l3ALzsPUz7P/8qLbExlxExOVUXuoHkAPj+1KfLXlDmd4v6Eu0AYAgEJGnTkRptj1IDnqqbf1Q2bSv2QlRaEF+qekvMBPKABEA65Adb1Fg8CgPvdfp6Zjo61oTyuik4cIyxLQtNlcpdzuevjcERhJchUNee+P2aV3YOhOa32b5cnxeMf9cuanaxfS0o9nQepSP5UCKPMl+ApzlBWYH7khMId0rdK4VIlwzRehN5hvVG9j+Nu0MbRlNL0RmnPwwwBhNObHUzPXoAMS5oF1+z/UCQb4qwyvSuUSZ8P3ECCOtGFDWYZ0LgpaLGiFiglsFfg+BQBWtkxEdaoznX4VgoEbP4lOSv3qMjbPLa0CkWgJ4DE4kRhnjNJ3zDzt7jk8Nfpxxyg4uWw4OPUF6xTgUOsh421pYUheGuxKZtXOlYUh7DRytO1V9r24SKiYncTWDOKpWx+Ei6fYe+naGO/w6DSbDZRbmX//cc485sw9RJ7kY2q0b0Icz66jtzRbjZvDk+WB+B1TqAGE7DgM7XJKWPNlcIEXpJ9/B7XDYvqiKnBQs9HRlryCIDyDqpMa9Q1IcqzxTW8yYcRbSTfNYQsZCnnmpI4kT3aEI495oDIMjOegkYlrFVAW6yS/5dN/qhbCFHrc4Ta4w8UNbIpL/vgSURvoUA1AFDUbHvzbUJ9EoQSw7mSFtdJcNUoqsZ4nDjLKT2s/IjKPD9xpkkGkamAHyQ8cdiLua6NKlz52fBDO7wHCitvEPlqRGckQNNzShyCxdAEB+2PZ7Y94Dt6XzZtYvSuxb/6ICYb/n+ZFkKJmFCclP2yc61F7eQFFB4v/8GfUoPSglMlB/1TuYrAokcXEdPfqi9/yL0wbDZ+vddBh2V79Q1yPmPrjz++rgBDfgzX9dfZJzSGRHK6CzNzvPcUQT4W+5rzFQwRdM4gH/Fp6AsuFPS7i7Zth3q1cAtSP+ZukY2FkCkOxdMSTqdJOVtaAx/RouQFjH1+SsLwUlDUG5S6lUgbbaOWo1q/TeRHpDbcqnSTus3/1co7mYKceDMU/nqDJOJSdHi2GvMJAONRtAA+R47XMq3xdFVo83CsNzbaGLKM0W8DPDLkxk2lVlaAw+cD4AKxpRttpfPrhGpz2gM9yICBB20tBxngdBt4JXTJUn0lKTmpVz3Vw5Ma4aV741+8NahsKEmxlDQ6wxZK6VzqGkERGNSsPFzzBFJ5EEXCRpx6fGbD+UQGjOmrIQB6PKSR3Rxqicbcppt1sI9khgXmOns12L1j/YOMaRwd8/IVVmXXue/4iVDoJwAUt8e5GI1QHgBB6yF+/m1qyGwlxrzKo7jE3G8YGWrh1ynwQ1cNeKLzRa8qNoGgeH4yYpnPtYe84O9LMHYjWBZif5WrvxIeTfCo5yj7iPOs6rPi+YzkH6BJQ2J735A6osjz7ghGsORXoF6Oqy451wOqDR1X6DEU9FjVhTStA7zdoypTVUD5BEjoplhZez7hMDQUp1BsMX6kGyXbVZ8YgF8zfPRcrXCRRKVOU2udnKSp8NgPR2zJkM2wdWrkLgWY5VYLhwuyy1AHLnURJINiCQq5sAVYErN3wAq3zGeVDRXsswZJae0vyVOB+GzE+ee1fpkX5bRN0owSabVjstJ1TlKJ1/feQ9vIDJnVq0LGxooL2OeQ8Olgbxhsumsy914SiltefDAcNvBZxvsbe1APABfr5JMGBs6fX3jijzZexo9QaU62Iq2cLvkQllUtMJqvsYRJpnFRl3bZIA6y2CMN2iLNOeY4bcB9+/bNaQqEtR+ARu8en0ajX9grW4YPnymUYBD3AyrgRwg3vSVf7IPPhY016Xk35hNZkJMrzcQCIKRClDz0Sp+Zll3Av6X1zvuocHR7OGYT+zkA2UDdZIy5vRaQavwIweJedsnEVEnOs8Q6RHHvXQNPCWDfrPussa3AwIqmrowMJ9dQZwqBZfFo4AOjqTe/HH+mN3Gy6eMaURX1n6sXSXaxlQjKeqRWT1PoBz++tBrWUNPn163+cPP+1iMN0j3jqGRBsWztklDFvjZvFN2M4CZoa/R3H2Kgjr+od1qRKo2uatTSZLvCHYXSxl+bP5rxe+TDGz/e9/95D4Vb5PuzhbSd7BrLgjRrkj1vU47+Q7FC/jyJX1tF51WCZSGCrUVGy/HXwEhHd1T7GZjeieGx8CMn7Z1fVQCQBB4Q/ziTACoi7hZCC4HK1m0TimgDMMWmaU096F3A6SLcBIms2QT+G4EBx8ZDtTbfM8TcJHx7zuSa2C0Noe93SwIlPuapWMWeW+dt4nxn9Uc6Wvtgn4ABzZg7FIvrNbMGYqztThEvAnp/sqC7zejfFxdode+U19adVRJza3p1PXvYP/klR78JhFmOdToAo8AAc35KdM7sInCw6Ipp2qmYklrfFbaVlpNQq4/en0k6zik8S3k8LLZyEHbstVOdkjkmyeDVcRce0JCtmaco++dkRbDTJj85IdpLA/pUFyPUoKmhn/MyRCvJE6hqUfOZ85M/mLzuzI4vKhNb5Fl0hiCaEEM6l7tVJUD9qU+t+6UvUgKTzyZN3n49RZIEspoKzlVvjS8T5Rht6mXSVBXbjRUE84wsQsRHLfG9FXnyz1tUuO/6Pcy9kMWxGeB10VWozKyMfz116eJc2mIZ5T50UHbN8Hgznu9a7DM4GzgbIxawTGseMx+QXNvwnmIFUj/8dgwAXMvMit4+5icHy3naue1CIbi9oQNnWt4h85FRMOimyc7k66AJO1FVtd0HviMi12RkfNR91QvF7BPUU5+GTIwK9ojsHnX25HIYHwblYYc/IbAWzYApVwjCBeOD/pJdCnAm2HoGn/y6QDEQeG3doi7Ar7fcdDsEZkdLqBZ2oWq2bvVDB31VOXTccSSAEyJI7qzmYEbnTe4qDjdIh16TvdUScOf3fM7eb65ZBPgxQV42vFrcxb7P3loewuoPdjeDQNqYWqPs5qZ3hDUR0AAABA+Bie2GMrQMA6CVE75us8ySPI38Q925YNteX0zqCeCI5bT1cFlXLcAK5s9ERpH7S8XHTH29oJzvIyL/2sciPOfe14ygPOjuk2rVeagdtdFCJr/kUL83Fzs6mBxqjdlm1NYwos4fSFZGpipRv86QcwdTOBxfbquCBzr0aG06W2K0jgufnpKCAJQa6UKlDjXZwrc57ZqmIw8jWwStspHSHdI95mOuBtZ8ShM5H2sPAJwJBmlSsB2AET9mXWms02cMFIJv+nGSzEANBmt4gX//+catyyQ4MiqdaUJN/KDDtTTHuxDEXtH6tecy1tF/1IDsUVWeFfBY2zJsOgRRQo6Z0a8Y76eku+vQ6LjmsD2lCXh+kMIOzYlP+skVcfoGa/aQn0tBlFvRsgWBhrVAKpUjijmijE5CgSldGlumS7bePmAi2Yv8OqNOXFStpIz/7X+XkX20/HNysnuVDN/xOR/MVvLFl3Kl6guPx+sNCQs9eg3VND4sRod196OWM/GK23TBF9wbUR4L7tSM+I2rTVpQfoq7e5jzh3WjBmjjdPWXWgiAlb+k4D2VQIl/uLNe0v+FJOu7X7bdgZA/9t3osZAG2SDi33fnZaI/RbW1Mnb/9z13L10Vsc9QpKyxPC7n2xz2PtffpOSfI8OQNP4CMMSpeHNr0aYVrYGrxMLez+xln2idBy10X0XMC0ZMIcBOtIXPma4wMW6B5PRW/p0WvKxsRDOAN/q964vPnCF44jM2WAzWdbdTBhqPsN4KpBJF0KPm8g6pTrEvyoeKKmeLQDaF5SanozMf823PjnI5l4LAIqqgSrO6xTveYIgy8kBzEuHfUpY0+gxPDRUBCNqyoQ0d3rM8LPEhWJWxc4olFDxd/BYcqv4aKwUkqNxr5SccT39O0H62OiXt64OhwP0/RtUa86Bs/3sgyh3UudwLvcg/NfIyWgNTP77sGmHeCVuHPWdi7tEQNeumufIjpAclNkpCfUQnWxEvikVc/0vPwoU+RmU9MHlJ98+dfkx47uSmZC+1UB1CsjyVN9E2W9OftLWaS3h8X2H8DSA52u9oI91lv5vrxn/llPfToy0QW5XIeG6zaKQTybRGwAbCqEHvmX5R9I9UVWfHhAyFxV3MvxlyoQqyu2hBvh+5PN0No/tcizs+f+g+InzraprZmPTGYw1IUfOhUIOAoi0UAPRIets48fxgbKFSbg/gngD05+oSBPJ8fKfYU572O6bcJgOJ+0bdN1XVM+DTEnN3uQlgWp0VV/EPOyQdz6N60zJhIcKYI7k6f+Lci4ptXIVie42zy4Wwdk5YIWbnIntBfRG3BFMS/anuR1iy13gF1oFi/QsQu+Xqupdfybt2bbrGNKmxBgWKYvBrTf8A5+c6eNEqKzU3s/WTguoCwmaaVDFnHJLUiTZSDRkxwgXoFkfhLLCXjP+Gj18ejIXnXBa77iXuhq1+FajG2d7Tt0ZxVIh7RPeWj4YTbz/W3GEHfW8sRfrE2oqR9rSi+okbfRUDuhSTy+LCUFGAIHPkyafemitfEawhVtSKeGBET5KrLlbLO9++ao9pu8cDAiqRZFINTqlYzNf0m6x06HrVJ0w3yl1Qis0yxeXuneRlpYoruUJRwLlUp4b0p1BjPlqIN65UTMuE9JxtlDEFx6ATqEowtDtzcCDzY8si0F/XK26bSymWy9M1ElrqpINmfIATykKMUe667Vx3iNQfacUm0qvMbrsYlzx9PcHzBXu5DEOY/QBo93wM+pjgj+4kkQB3bxfyOc43al87IGUOz8WmtqVcyKjaYFJfiXOrCvpWlzKWhJPmyRAsjuBRrXB7gKjriITQAAA;clipPath=inset(1.17% 8.59% 20.31% 8.59%);" vertex="1" parent="1">
          <mxGeometry x="-66" y="814" width="66.45" height="63" as="geometry" />
        </mxCell>
      </root>
    </mxGraphModel>
  </diagram>
</mxfile>
